<?xml version="1.0" encoding="utf-8"?>
<!-- Generator: Adobe Illustrator 18.0.0, SVG Export Plug-In . SVG Version: 6.00 Build 0)  -->
<!DOCTYPE svg PUBLIC "-//W3C//DTD SVG 1.1//EN" "http://www.w3.org/Graphics/SVG/1.1/DTD/svg11.dtd">
<svg version="1.1" id="Camada_1" xmlns="http://www.w3.org/2000/svg" xmlns:xlink="http://www.w3.org/1999/xlink" x="0px" y="0px"
	 viewBox="0 0 300 74" enable-background="new 0 0 300 74" xml:space="preserve">
<g>
	<polygon fill="#2E255E" points="104.4,26.5 107.5,26.5 107.5,50.9 104.4,50.9 104.4,30.9 93.1,41.1 81.7,30.9 81.7,50.9 78.6,50.9 
		78.6,26.5 81.7,26.5 93.1,36.6 	"/>
	<path fill="#2E255E" d="M125.7,44.1l-4.3,6.8h-3.7l15.5-24.4h2.3l15.6,24.4h-3.7l-4.4-6.8H125.7z M134.4,30.5l-6.5,10h12.8
		L134.4,30.5z"/>
	<polygon fill="#2E255E" points="168.7,50.9 165.5,50.9 165.5,30.2 153.5,30.2 153.5,26.6 180.8,26.6 180.8,30.2 168.7,30.2 	"/>
	<polygon fill="#2E255E" points="194.2,30.2 194.2,37 215.8,37 215.4,40.7 194.2,40.7 194.2,47.3 216.6,47.3 216.6,50.9 191,50.9 
		191,26.6 215.8,26.6 215.8,30.2 	"/>
	<path fill="#2E255E" d="M249.8,26.6c2.2,0,3.5,0.5,4.5,1.8c1,1.2,1.4,2.8,1.4,5.6v1.8c0,2.8-0.4,4.4-1.4,5.6
		c-0.8,1-1.6,1.4-3.1,1.7l4.7,8H252l-4.3-8h-16.1v8h-3.1V26.6H249.8z M249.2,39.4c1.9,0,2.4-0.2,2.9-0.7c0.4-0.5,0.6-1.1,0.6-2.2
		v-3.4c0-1.1-0.2-1.7-0.6-2.2c-0.6-0.6-1.1-0.7-2.9-0.7h-17.5v9.2L249.2,39.4L249.2,39.4z"/>
	<path fill="#2E255E" d="M273.7,44.1l-4.3,6.8h-3.7l15.5-24.4h2.3l15.6,24.4h-3.7l-4.4-6.8H273.7z M282.4,30.5l-6.5,10h12.8
		L282.4,30.5z"/>
	<path fill="#2E255E" d="M82.3,65.1c1.1,0.5,2.4,0.9,2.4,2.5c0,1.3-0.8,2.7-3.9,2.7c-0.9,0-2.1-0.2-2.6-0.4v-1
		c0.3,0.1,1.5,0.4,2.6,0.4c1.8,0,2.6-0.7,2.6-1.7c0-1.1-1.2-1.5-1.8-1.7l-0.8-0.4c-1-0.4-2.5-0.9-2.5-2.4c0-1.4,1-2.4,3.3-2.4
		c1.2,0,2,0.2,2.5,0.3v1c-0.4-0.1-1.3-0.4-2.4-0.4c-1.4,0-2.1,0.6-2.1,1.3c0,0.9,1.1,1.3,1.9,1.6L82.3,65.1z"/>
	<polygon fill="#2E255E" points="115.8,70.1 111.9,61.2 113.1,61.2 116.4,68.6 119.3,61.2 120.5,61.2 115.6,73.7 114.5,73.7 	"/>
	<path fill="#2E255E" d="M152,65.1c1.1,0.5,2.4,0.9,2.4,2.5c0,1.3-0.8,2.7-3.9,2.7c-0.9,0-2.1-0.2-2.6-0.4v-1
		c0.3,0.1,1.5,0.4,2.6,0.4c1.8,0,2.6-0.7,2.6-1.7c0-1.1-1.2-1.5-1.8-1.7l-0.9-0.4c-1-0.4-2.5-0.9-2.5-2.4c0-1.4,1-2.4,3.3-2.4
		c1.2,0,2,0.2,2.5,0.3v1c-0.4-0.1-1.3-0.4-2.4-0.4c-1.4,0-2.1,0.6-2.1,1.3c0,0.9,1.1,1.3,1.9,1.6L152,65.1z"/>
	<path fill="#2E255E" d="M187.5,70.3c-0.4,0.1-0.7,0.1-1.1,0.1c-2.6,0-2.7-1.5-2.7-2.2v-6.1h-1.6v-0.9h1.6v-2.1l1.1-0.6v2.7h2.7v0.9
		h-2.7v5.6c0,0.6,0,1.7,1.7,1.7c0.6,0,0.8-0.1,1-0.2V70.3z"/>
	<path fill="#2E255E" d="M222.4,70.1c-0.6,0.1-1.4,0.2-2.2,0.2c-3.1,0-4.8-1.8-4.8-5c0-3,1.4-4.5,3.8-4.5c2.5,0,3.4,1.7,3.4,3.3v0.5
		h-5.9c0,0.3,0,0.6,0,0.9c0,0.7,0,3.9,3.9,3.9c0.6,0,1.3-0.1,1.9-0.3L222.4,70.1L222.4,70.1z M221.4,63.7c0-0.6-0.4-1.9-2.1-1.9
		c-1.9,0-2.3,1.3-2.4,1.9H221.4z"/>
	<path fill="#2E255E" d="M251.7,61.2h1.1v2.2l0,0c0.3-0.9,0.9-2.4,3.2-2.4c1.9,0,2.4,1.4,2.4,2.2l0,0c0.3-0.8,1.1-2.2,2.9-2.2
		c1.1,0,2.6,0.3,2.6,2.6v6.7h-1.1v-5.7c0-0.9,0-2.6-1.6-2.6c-1.6,0-2.9,2.3-2.9,4.7v3.6h-1.1v-5.7c0-0.9,0-2.6-1.3-2.6
		c-1.8,0-3.2,2.4-3.2,4.9v3.5h-1.1L251.7,61.2L251.7,61.2z"/>
	<path fill="#2E255E" d="M296.9,65.1c1.1,0.5,2.4,0.9,2.4,2.5c0,1.3-0.8,2.7-3.9,2.7c-0.9,0-2.1-0.2-2.6-0.4v-1
		c0.3,0.1,1.5,0.4,2.6,0.4c1.8,0,2.6-0.7,2.6-1.7c0-1.1-1.2-1.5-1.8-1.7l-0.8-0.4c-1-0.4-2.5-0.9-2.5-2.4c0-1.4,1-2.4,3.3-2.4
		c1.2,0,2,0.2,2.5,0.3v1c-0.4-0.1-1.3-0.4-2.4-0.4c-1.4,0-2.1,0.6-2.1,1.3c0,0.9,1.1,1.3,1.9,1.6L296.9,65.1z"/>
	<path fill="#1FB0E7" d="M23.8,34.4c0,0,0.3-31.9,13.9-33.3c5,0,10.5,6.7,13.4,20.7c0,0-3.1-8.5-10.7-8.5
		C31.8,13.4,24.8,27.2,23.8,34.4L23.8,34.4z"/>
	<path fill="#2E255E" d="M36.3,51.9c-4.5-3.9-8.8-8.4-12.4-13.8c0,0,0,11.2,4.4,19.9C29.7,57.2,33,55.2,36.3,51.9L36.3,51.9z
		 M47,59.7c7-12.4,4.8-33.1,4.8-33.1s-4.6,17.9-18.9,29.8C15.6,70.4,0.3,65.3,0.3,65.3c7,3.4,25.9,8.1,38.5,2.1
		c12.9,4.2,23.3,2.7,27.4,1.5C66.2,68.9,57.4,66.1,47,59.7L47,59.7z"/>
</g>
<g>
</g>
<g>
</g>
<g>
</g>
<g>
</g>
<g>
</g>
<g>
</g>
<g>
</g>
<g>
</g>
<g>
</g>
<g>
</g>
<g>
</g>
<g>
</g>
<g>
</g>
<g>
</g>
<g>
</g>
</svg>
