<?xml version="1.0" encoding="utf-8"?>
<!-- Generator: Adobe Illustrator 18.1.1, SVG Export Plug-In . SVG Version: 6.00 Build 0)  -->
<svg version="1.1" id="Camada_1" xmlns="http://www.w3.org/2000/svg" xmlns:xlink="http://www.w3.org/1999/xlink" x="0px" y="0px"
	 viewBox="0 0 141.7 35" enable-background="new 0 0 141.7 35" xml:space="preserve">
<g>
	<polygon fill-rule="evenodd" clip-rule="evenodd" fill="#FFFFFF" points="49.4,12.1 50.9,12.1 50.9,23.7 49.4,23.7 49.4,14.1 
		44,19 38.6,14.1 38.6,23.7 37.2,23.7 37.2,12.1 38.6,12.1 44,16.8 	"/>
	<path fill-rule="evenodd" clip-rule="evenodd" fill="#FFFFFF" d="M59.5,20.4l-2,3.2h-1.8l7.4-11.6h1.1l7.4,11.6h-1.8l-2.1-3.2H59.5
		z M63.6,14l-3.1,4.7h6.1L63.6,14z"/>
	<polygon fill-rule="evenodd" clip-rule="evenodd" fill="#FFFFFF" points="79.9,23.7 78.4,23.7 78.4,13.8 72.7,13.8 72.7,12.1 
		85.6,12.1 85.6,13.8 79.9,13.8 	"/>
	<polygon fill-rule="evenodd" clip-rule="evenodd" fill="#FFFFFF" points="92,13.8 92,17 102.3,17 102.1,18.8 92,18.8 92,21.9 
		102.6,21.9 102.6,23.7 90.5,23.7 90.5,12.1 102.3,12.1 102.3,13.8 	"/>
	<path fill-rule="evenodd" clip-rule="evenodd" fill="#FFFFFF" d="M118.4,12.1c1,0,1.6,0.2,2.1,0.8c0.5,0.6,0.7,1.3,0.7,2.6v0.9
		c0,1.3-0.2,2.1-0.7,2.6c-0.4,0.5-0.7,0.7-1.5,0.8l2.2,3.8h-1.8l-2.1-3.8h-7.7v3.8h-1.5V12.1H118.4z M118.1,18.2
		c0.9,0,1.1-0.1,1.4-0.4c0.2-0.2,0.3-0.5,0.3-1v-1.6c0-0.5-0.1-0.8-0.3-1c-0.3-0.3-0.5-0.3-1.4-0.3h-8.3v4.3H118.1z"/>
	<path fill-rule="evenodd" clip-rule="evenodd" fill="#FFFFFF" d="M129.7,20.4l-2.1,3.2h-1.8l7.4-11.6h1.1l7.4,11.6h-1.8l-2.1-3.2
		H129.7z M133.9,14l-3.1,4.7h6.1L133.9,14z"/>
	<path fill-rule="evenodd" clip-rule="evenodd" fill="#FFFFFF" d="M38.9,30.4c0.5,0.2,1.1,0.4,1.1,1.2c0,0.6-0.4,1.3-1.8,1.3
		c-0.4,0-1-0.1-1.3-0.2v-0.5c0.1,0,0.7,0.2,1.3,0.2c0.8,0,1.2-0.3,1.2-0.8c0-0.5-0.6-0.7-0.9-0.8l-0.4-0.2c-0.5-0.2-1.2-0.4-1.2-1.1
		c0-0.6,0.4-1.1,1.6-1.1c0.5,0,1,0.1,1.2,0.1V29c-0.2-0.1-0.6-0.2-1.1-0.2c-0.7,0-1,0.3-1,0.6c0,0.4,0.5,0.6,0.9,0.8L38.9,30.4z"/>
	<polygon fill-rule="evenodd" clip-rule="evenodd" fill="#FFFFFF" points="54.8,32.8 52.9,28.5 53.5,28.5 55.1,32.1 56.5,28.5 
		57,28.5 54.7,34.4 54.2,34.4 	"/>
	<path fill-rule="evenodd" clip-rule="evenodd" fill="#FFFFFF" d="M72,30.4c0.5,0.2,1.1,0.4,1.1,1.2c0,0.6-0.4,1.3-1.8,1.3
		c-0.4,0-1-0.1-1.3-0.2v-0.5c0.1,0,0.7,0.2,1.3,0.2c0.8,0,1.2-0.3,1.2-0.8c0-0.5-0.5-0.7-0.8-0.8l-0.4-0.2c-0.5-0.2-1.2-0.4-1.2-1.1
		c0-0.6,0.4-1.1,1.6-1.1c0.5,0,1,0.1,1.2,0.1V29c-0.2-0.1-0.6-0.2-1.1-0.2c-0.7,0-1,0.3-1,0.6c0,0.4,0.5,0.6,0.9,0.8L72,30.4z"/>
	<path fill-rule="evenodd" clip-rule="evenodd" fill="#FFFFFF" d="M88.9,32.8c-0.2,0-0.3,0-0.5,0c-1.2,0-1.3-0.7-1.3-1v-2.9h-0.8
		v-0.4h0.8v-1l0.5-0.3v1.3h1.3v0.4h-1.3v2.7c0,0.3,0,0.8,0.8,0.8c0.3,0,0.4,0,0.5-0.1V32.8z"/>
	<path fill-rule="evenodd" clip-rule="evenodd" fill="#FFFFFF" d="M105.4,32.8c-0.3,0.1-0.6,0.1-1,0.1c-1.5,0-2.3-0.9-2.3-2.4
		c0-1.4,0.7-2.1,1.8-2.1c1.2,0,1.6,0.8,1.6,1.5v0.2h-2.8c0,0.2,0,0.3,0,0.4c0,0.3,0,1.8,1.8,1.8c0.3,0,0.6,0,0.9-0.1V32.8z
		 M104.9,29.7c0-0.3-0.2-0.9-1-0.9c-0.9,0-1.1,0.6-1.1,0.9H104.9z"/>
	<path fill-rule="evenodd" clip-rule="evenodd" fill="#FFFFFF" d="M119.3,28.5h0.5v1.1h0c0.1-0.4,0.4-1.2,1.5-1.2
		c0.9,0,1.1,0.7,1.1,1h0c0.1-0.4,0.5-1,1.4-1c0.5,0,1.2,0.1,1.2,1.2v3.2h-0.5v-2.7c0-0.4,0-1.3-0.8-1.3c-0.8,0-1.4,1.1-1.4,2.2v1.7
		h-0.5v-2.7c0-0.4,0-1.3-0.6-1.3c-0.9,0-1.5,1.1-1.5,2.3v1.6h-0.5V28.5z"/>
	<path fill-rule="evenodd" clip-rule="evenodd" fill="#FFFFFF" d="M140.8,30.4c0.5,0.2,1.1,0.4,1.1,1.2c0,0.6-0.4,1.3-1.8,1.3
		c-0.4,0-1-0.1-1.3-0.2v-0.5c0.1,0,0.7,0.2,1.3,0.2c0.8,0,1.2-0.3,1.2-0.8c0-0.5-0.6-0.7-0.9-0.8l-0.4-0.2c-0.5-0.2-1.2-0.4-1.2-1.1
		c0-0.6,0.4-1.1,1.6-1.1c0.5,0,1,0.1,1.2,0.1V29c-0.2-0.1-0.6-0.2-1.1-0.2c-0.7,0-1,0.3-1,0.6c0,0.4,0.5,0.6,0.9,0.8L140.8,30.4z"/>
	<path fill-rule="evenodd" clip-rule="evenodd" fill="#FFFFFF" d="M11.1,15.8c0,0,0.1-15.1,6.6-15.8c2.4,0,5,3.2,6.4,9.8
		c0,0-1.5-4-5.1-4C14.9,5.8,11.6,12.4,11.1,15.8L11.1,15.8z"/>
	<path fill-rule="evenodd" clip-rule="evenodd" fill="#FFFFFF" d="M17.1,24.1c-2.1-1.8-4.2-4-5.9-6.5c0,0,0,5.3,2.1,9.5
		C13.9,26.6,15.5,25.7,17.1,24.1L17.1,24.1z M22.1,27.8c3.3-5.9,2.3-15.7,2.3-15.7s-2.2,8.5-9,14.1C7.3,32.9,0,30.5,0,30.5
		c3.3,1.6,12.3,3.8,18.3,1c6.2,2,11.1,1.3,13,0.7C31.3,32.2,27.1,30.9,22.1,27.8L22.1,27.8z"/>
</g>
<g>
</g>
<g>
</g>
<g>
</g>
<g>
</g>
<g>
</g>
<g>
</g>
</svg>
